<svg width="25" height="28" viewBox="0 0 25 28" fill="none" xmlns="http://www.w3.org/2000/svg">
<path d="M0.611941 10.5875L11.0286 0.587501C11.4323 0.193751 11.9661 1.25146e-06 12.5 1.29814e-06C13.0338 1.34481e-06 13.5664 0.195314 13.9726 0.585939L24.3893 10.5859C25.2031 11.3672 25.2031 12.6328 24.3893 13.4141C23.5755 14.1953 22.2571 14.1953 21.4433 13.4141L14.5833 6.825L14.5833 26C14.5833 27.1056 13.6504 27.9438 12.5586 27.9438C11.4668 27.9438 10.4166 27.1056 10.4166 26L10.4166 6.825L3.55465 13.4125C2.74085 14.1938 1.42249 14.1938 0.608686 13.4125C-0.205116 12.6313 -0.201861 11.3688 0.611941 10.5875Z" fill="#5E5A60"/>
</svg>
