<svg width="32" height="25" viewBox="0 0 32 25" fill="none" xmlns="http://www.w3.org/2000/svg">
<path d="M27.131 2.52697C27.1221 2.51 27.1074 2.49671 27.0894 2.48947C25.0147 1.55243 22.8253 0.884243 20.5759 0.501639C20.5555 0.497899 20.5344 0.500597 20.5156 0.509349C20.4968 0.518101 20.4813 0.532462 20.4712 0.550389C20.1731 1.08305 19.9025 1.63017 19.6604 2.18968C17.2357 1.82737 14.7693 1.82737 12.3446 2.18968C12.1009 1.62875 11.8259 1.08149 11.521 0.550389C11.5105 0.532852 11.4949 0.518822 11.4762 0.510126C11.4576 0.501431 11.4367 0.498473 11.4163 0.501639C9.16665 0.88344 6.97706 1.55167 4.9026 2.48952C4.88484 2.49693 4.86985 2.50958 4.85971 2.52573C0.711179 8.62422 -0.425261 14.5728 0.132238 20.4476C0.133806 20.462 0.1383 20.476 0.145452 20.4886C0.152604 20.5013 0.162269 20.5124 0.173871 20.5213C2.58952 22.2819 5.29146 23.6259 8.16438 24.4957C8.18461 24.5017 8.20621 24.5014 8.22628 24.4949C8.24636 24.4885 8.26393 24.4761 8.27665 24.4595C8.89369 23.633 9.44043 22.7579 9.91132 21.8429C9.91779 21.8304 9.92148 21.8166 9.92216 21.8026C9.92283 21.7885 9.92047 21.7745 9.91523 21.7614C9.90999 21.7483 9.90199 21.7364 9.89176 21.7266C9.88153 21.7167 9.86929 21.7091 9.85586 21.7043C8.99369 21.3796 8.159 20.9881 7.35964 20.5336C7.34512 20.5252 7.33292 20.5134 7.32413 20.4993C7.31534 20.4851 7.31021 20.4691 7.30922 20.4525C7.30822 20.436 7.31139 20.4194 7.31842 20.4044C7.32546 20.3893 7.33616 20.3762 7.34957 20.3661C7.5173 20.2424 7.68514 20.1138 7.8453 19.9838C7.85953 19.9723 7.87675 19.9649 7.89502 19.9624C7.91328 19.96 7.93188 19.9627 7.9487 19.9701C13.1857 22.3228 18.8554 22.3228 24.0304 19.9701C24.0473 19.9622 24.066 19.9592 24.0846 19.9614C24.1031 19.9636 24.1206 19.9709 24.1351 19.9826C24.2953 20.1125 24.4631 20.2424 24.6321 20.3661C24.6456 20.3761 24.6564 20.3891 24.6635 20.4041C24.6707 20.4191 24.6739 20.4356 24.6731 20.4522C24.6722 20.4687 24.6672 20.4848 24.6585 20.499C24.6498 20.5132 24.6377 20.5251 24.6233 20.5336C23.8257 20.9919 22.9903 21.3832 22.1258 21.7031C22.1124 21.7081 22.1002 21.7159 22.0901 21.7259C22.0799 21.7358 22.072 21.7478 22.0668 21.761C22.0617 21.7742 22.0595 21.7884 22.0602 21.8025C22.061 21.8166 22.0648 21.8304 22.0714 21.8429C22.5502 22.7528 23.0961 23.6268 23.7048 24.458C23.7172 24.4751 23.7347 24.4879 23.7548 24.4946C23.775 24.5014 23.7968 24.5017 23.8171 24.4955C26.6952 23.6287 29.4018 22.2846 31.8205 20.5213C31.8323 20.5128 31.8421 20.502 31.8493 20.4895C31.8565 20.477 31.8608 20.4632 31.8621 20.4489C32.5296 13.6569 30.7448 7.75711 27.131 2.52697ZM10.6934 16.8704C9.1167 16.8704 7.81754 15.4461 7.81754 13.6969C7.81754 11.9477 9.09151 10.5233 10.6934 10.5233C12.3078 10.5233 13.5944 11.9601 13.5692 13.6968C13.5692 15.4461 12.2952 16.8704 10.6934 16.8704ZM21.3264 16.8704C19.7497 16.8704 18.4506 15.4461 18.4506 13.6969C18.4506 11.9477 19.7245 10.5233 21.3264 10.5233C22.9409 10.5233 24.2275 11.9601 24.2023 13.6968C24.2023 15.4461 22.9409 16.8704 21.3264 16.8704Z" fill="white"/>
</svg>
