<svg width="34" height="34" viewBox="0 0 34 34" fill="none" xmlns="http://www.w3.org/2000/svg">
<path d="M17 0.5C7.61113 0.5 0 7.88728 0 17C0 26.1127 7.61113 33.5 17 33.5C26.3889 33.5 34 26.1127 34 17C34 7.88728 26.3889 0.5 17 0.5ZM24.8798 11.7213C24.624 14.3304 23.517 20.6618 22.9536 23.584C22.7153 24.8205 22.246 25.2351 21.7918 25.2756C20.8047 25.3638 20.0549 24.6424 19.0987 24.0341C17.6025 23.0821 16.7573 22.4895 15.3049 21.5606C13.6265 20.4871 14.7145 19.8973 15.6711 18.9326C15.9214 18.6802 20.2711 14.8402 20.3553 14.4918C20.3658 14.4482 20.3759 14.2856 20.2762 14.2001C20.1765 14.1147 20.0301 14.1436 19.9242 14.1669C19.7742 14.1999 17.3839 15.7333 12.7535 18.767C12.0751 19.2192 11.4606 19.4395 10.91 19.428C10.303 19.4153 9.13538 19.0949 8.26735 18.821C7.20272 18.4851 6.35656 18.3076 6.43025 17.7371C6.46864 17.4399 6.89021 17.1361 7.69497 16.8256C12.6508 14.7299 15.9555 13.3483 17.609 12.6807C22.33 10.7747 23.311 10.4436 23.9505 10.4326C24.0911 10.4303 24.4056 10.4641 24.6092 10.6245C24.7447 10.7388 24.831 10.8983 24.8512 11.0714C24.8857 11.2863 24.8953 11.5043 24.8798 11.7213Z" fill="white"/>
</svg>
