<svg width="26" height="26" viewBox="0 0 26 26" fill="none" xmlns="http://www.w3.org/2000/svg">
<path d="M2.25729 2.25729C0.5 4.01458 0.5 6.84325 0.5 12.5V13.5C0.5 19.1568 0.5 21.9854 2.25729 23.7427C4.01458 25.5 6.84325 25.5 12.5 25.5H13.5C19.1568 25.5 21.9854 25.5 23.7427 23.7427C25.5 21.9854 25.5 19.1568 25.5 13.5V12.5C25.5 6.84325 25.5 4.01458 23.7427 2.25729C21.9854 0.5 19.1568 0.5 13.5 0.5H12.5C6.84325 0.5 4.01458 0.5 2.25729 2.25729ZM4.71875 8.10419H7.57294C7.66669 12.875 9.77081 14.8958 11.4375 15.3125V8.10419H14.125V12.2188C15.7708 12.0417 17.5 10.1667 18.0833 8.10419H20.7708C20.5509 9.17383 20.1127 10.1866 19.4836 11.0792C18.8545 11.9718 18.048 12.7249 17.1146 13.2917C18.1568 13.8091 19.0774 14.5419 19.8154 15.4415C20.5534 16.3411 21.0921 17.3872 21.3958 18.5104H18.4375C18.1649 17.5347 17.6102 16.6613 16.8429 15.9997C16.0757 15.3381 15.1302 14.9179 14.125 14.7917V18.5104H13.8021C8.10419 18.5104 4.85417 14.6042 4.71875 8.10419Z" fill="white"/>
</svg>
